<svg xmlns="http://www.w3.org/2000/svg" width="256" height="256" viewBox="0 0 700 400"><path d="M470.38 310.668c-58.111 42.833-142.34 65.686-214.86 65.686-101.685 0-193.227-37.61-262.483-100.161-5.44-4.92-.565-11.623 5.964-7.792 74.74 43.486 167.153 69.647 262.613 69.647 64.38 0 135.202-13.32 200.322-40.961 9.837-4.179 18.064 6.442 8.444 13.581" fill="#000000" fill-rule="evenodd"/><path d="M494.54 283.027c-7.4-9.49-49.102-4.484-67.82-2.264-5.702.697-6.572-4.266-1.436-7.835 33.213-23.375 87.712-16.628 94.067-8.793 6.355 7.879-1.654 62.508-32.865 88.582-4.788 4.005-9.359 1.872-7.226-3.439 7.009-17.498 22.723-56.718 15.28-66.251" fill="#000000" fill-rule="evenodd"/></svg>
