<svg xmlns="http://www.w3.org/2000/svg" width="278" height="310" viewBox="0 0 278 310"><g fill="#000000"><path d="M139.012 219.271l29.516-166c28.134 0 37.008 3.085 38.289 15.677 0 0 18.873-7.037 28.392-21.329-37.145-17.212-74.468-17.989-74.468-17.989l-21.778 26.526.049-.003-21.778-26.527s-37.324.777-74.464 17.99c9.511 14.292 28.391 21.329 28.391 21.329 1.289-12.593 10.152-15.678 38.097-15.698z"/><path d="M139.001 21.77c30.027-.23 64.396 4.645 99.58 19.98 4.702-8.464 5.911-12.205 5.911-12.205C206.031 14.329 169.013 9.121 139.997 8.99 107.983 9.121 71.966 14.329 33.505 29.545c0 0 1.716 4.608 5.907 12.205 35.177-15.335 69.552-20.209 99.58-19.98z"/></g></svg>
