<svg clip-rule="evenodd" fill-rule="evenodd" width="240" height="40" viewBox="160 316 240 40" xmlns="http://www.w3.org/2000/svg"><g fill="#ffffff"><path d="m362.099 331.597v18.231h5.846v-12.138h21.278v12.138h5.842v-18.199l-32.967-.032"/><path d="m367.294 325.7h22.481c3.122-.621 5.445-3.376 6.099-6.042h-34.679c.648 2.667 3.004 5.421 6.099 6.042"/><path d="m344.392 349.839c2.948-1.25 4.534-3.411 5.141-5.94h-26.222l.017-24.226-5.878.017v30.15h26.943"/><path d="m273.738 325.618h20.762c3.13-.909 5.758-3.294 6.399-5.937h-32.98v17.817h26.993v6.252l-21.174.017c-3.318.925-6.132 3.153-7.535 6.096l1.716-.032h32.793v-18.257h-26.973v-5.956"/><path d="m222.484 325.676h22.473c3.127-.623 5.45-3.376 6.102-6.044h-34.677c.647 2.668 3.005 5.421 6.102 6.044"/><path d="m222.484 337.592h22.473c3.127-.617 5.45-3.372 6.102-6.042h-34.677c.647 2.671 3.005 5.425 6.102 6.042"/><path d="m222.484 349.836h22.473c3.127-.622 5.45-3.376 6.102-6.043h-34.677c.647 2.667 3.005 5.421 6.102 6.043"/><path d="m164.019 319.704c.676 2.635 2.957 5.328 6.087 6.003h9.46l.483.191v23.871h5.907v-23.871l.537-.191h9.468c3.165-.815 5.397-3.368 6.061-6.003v-.058h-38.002v.058"/></g></svg>
